<?xml version="1.0" encoding="UTF-8" standalone="no"?>
<svg
   xmlns:dc="http://purl.org/dc/elements/1.1/"
   xmlns:cc="http://creativecommons.org/ns#"
   xmlns:rdf="http://www.w3.org/1999/02/22-rdf-syntax-ns#"
   xmlns:svg="http://www.w3.org/2000/svg"
   xmlns="http://www.w3.org/2000/svg"
   xmlns:sodipodi="http://sodipodi.sourceforge.net/DTD/sodipodi-0.dtd"
   xmlns:inkscape="http://www.inkscape.org/namespaces/inkscape"
   width="793.70081"
   height="1122.5197"
   viewBox="0 0 210 297"
   version="1.1"
   id="svg8"
   sodipodi:docname="bird friend.svg"
   inkscape:version="1.0.2 (394de47547, 2021-03-26)">
  <defs
     id="defs2" />
  <sodipodi:namedview
     id="base"
     pagecolor="#ffffff"
     bordercolor="#666666"
     borderopacity="1.0"
     inkscape:pageopacity="0.0"
     inkscape:pageshadow="2"
     inkscape:zoom="0.49497475"
     inkscape:cx="247.04172"
     inkscape:cy="687.13472"
     inkscape:document-units="px"
     inkscape:current-layer="layer1"
     showgrid="false"
     inkscape:snap-global="false"
     inkscape:window-width="1832"
     inkscape:window-height="1003"
     inkscape:window-x="0"
     inkscape:window-y="27"
     inkscape:window-maximized="1"
     units="px"
     inkscape:document-rotation="0" />
  <metadata
     id="metadata5">
    <rdf:RDF>
      <cc:Work
         rdf:about="">
        <dc:format>image/svg+xml</dc:format>
        <dc:type
           rdf:resource="http://purl.org/dc/dcmitype/StillImage" />
        <dc:title />
      </cc:Work>
    </rdf:RDF>
  </metadata>
  <g
     inkscape:label="Layer 1"
     inkscape:groupmode="layer"
     id="layer1">
    <path
       inkscape:connector-curvature="0"
       id="path1108"
       d="m 194.53941,84.091204 -0.0581,-7.79275 c -0.004,-0.54837 -0.44881,-0.98308 -0.99713,-0.9747 v 0 c -0.54831,0.008 -0.98644,0.4566 -0.98236,1.00496 l 0.0581,7.79276 c 0.004,0.54836 0.44881,0.98308 0.99713,0.97469 v 0 c 0.54832,-0.008 0.98645,-0.4566 0.98236,-1.00496 z"
       style="opacity:1;fill:#d45500;fill-opacity:1;stroke:#d45500;stroke-width:1.02574;stroke-linecap:round;stroke-linejoin:miter;stroke-miterlimit:4;stroke-dasharray:none;stroke-opacity:1" />
    <path
       inkscape:connector-curvature="0"
       id="path1128"
       d="m 199.23762,85.246274 h -8.46966 c -0.40056,0 -0.72304,0.32248 -0.72304,0.72305 v 0 c 0,0.40056 0.32248,0.72304 0.72304,0.72304 h 8.46966 c 0.40056,0 0.72304,-0.32248 0.72304,-0.72304 v 0 c 0,-0.40057 -0.32248,-0.72305 -0.72304,-0.72305 z"
       style="opacity:1;fill:#d45500;fill-opacity:1;stroke:#d45500;stroke-width:0.88307;stroke-linecap:round;stroke-linejoin:miter;stroke-miterlimit:4;stroke-dasharray:none;stroke-opacity:1" />
    <g
       id="g2075"
       transform="matrix(0.28009874,0,0,0.28009874,125.20362,6.4643044)"
       style="fill:#ff6600;fill-opacity:1;stroke:#ff6600;stroke-opacity:1">
      <path
         style="opacity:1;fill:#ff6600;fill-opacity:1;stroke:#ff6600;stroke-width:3.66206;stroke-linecap:round;stroke-linejoin:miter;stroke-miterlimit:4;stroke-dasharray:none;stroke-opacity:1"
         d="m 232.12985,275.61324 -12.49687,-24.85769 c -0.87939,-1.74921 -2.98996,-2.43845 -4.73223,-1.54539 v 0 c -1.74227,0.89303 -2.43692,3.02023 -1.55753,4.76942 l 12.49688,24.85769 c 0.87938,1.7492 2.98995,2.43844 4.73222,1.54538 v 0 c 1.74227,-0.89303 2.43692,-3.02022 1.55753,-4.76941 z"
         id="path1110"
         inkscape:connector-curvature="0" />
      <path
         style="opacity:1;fill:#ff6600;fill-opacity:1;stroke:#ff6600;stroke-width:3.15271;stroke-linecap:round;stroke-linejoin:miter;stroke-miterlimit:4;stroke-dasharray:none;stroke-opacity:1"
         d="m 249.2675,268.6879 -26.74468,14.10904 c -1.26487,0.66728 -1.74597,2.22276 -1.07869,3.48763 v 0 c 0.66728,1.26487 2.22276,1.74597 3.48763,1.07869 l 26.74468,-14.10904 c 1.26487,-0.66728 1.74597,-2.22276 1.07869,-3.48763 v 0 c -0.66728,-1.26487 -2.22276,-1.74597 -3.48763,-1.07869 z"
         id="path1130"
         inkscape:connector-curvature="0" />
    </g>
    <g
       id="g2960"
       transform="matrix(0.28009874,0,0,0.28009874,125.02221,5.9036298)">
      <path
         inkscape:connector-curvature="0"
         id="rect877"
         d="m 72.15957,134.26621 -0.20752,-27.82145 c -0.0146,-1.95776 -1.60233,-3.50976 -3.55991,-3.47983 v 0 c -1.95758,0.0299 -3.52179,1.63013 -3.50719,3.58789 l 0.20753,27.82145 c 0.0146,1.95775 1.60232,3.50976 3.5599,3.47983 v 0 c 1.95759,-0.0299 3.52179,-1.63014 3.50719,-3.58789 z"
         style="opacity:1;fill:#d45500;fill-opacity:1;stroke:#d45500;stroke-width:3.66206;stroke-linecap:round;stroke-linejoin:miter;stroke-miterlimit:4;stroke-dasharray:none;stroke-opacity:1" />
      <path
         inkscape:connector-curvature="0"
         id="rect879"
         d="m 51.74885,134.26621 -0.20752,-27.82146 c -0.0146,-1.95776 -1.60232,-3.50976 -3.55991,-3.47983 v 0 c -1.95758,0.0299 -3.52179,1.63014 -3.50718,3.58789 l 0.20752,27.82146 c 0.0146,1.95775 1.60232,3.50975 3.55991,3.47982 v 0 c 1.95758,-0.0299 3.52179,-1.63013 3.50718,-3.58788 z"
         style="opacity:1;fill:#ff6600;fill-opacity:1;stroke:#ff6600;stroke-width:3.66206;stroke-linecap:round;stroke-linejoin:miter;stroke-miterlimit:4;stroke-dasharray:none;stroke-opacity:1" />
      <g
         transform="matrix(-1,0,0,1,134.6681,1.9e-7)"
         id="g985">
        <path
           style="opacity:1;fill:#d45500;fill-opacity:1;stroke:#d45500;stroke-width:3.15271;stroke-linecap:round;stroke-linejoin:miter;stroke-miterlimit:4;stroke-dasharray:none;stroke-opacity:1"
           d="m 45.73512,138.39002 h 30.238101 c 1.430088,0 2.581385,1.1513 2.581385,2.58139 v 0 c 0,1.43009 -1.151297,2.58138 -2.581385,2.58138 H 45.73512 c -1.430087,0 -2.581385,-1.15129 -2.581385,-2.58138 v 0 c 0,-1.43009 1.151298,-2.58139 2.581385,-2.58139 z"
           id="rect887"
           inkscape:connector-curvature="0" />
        <path
           style="opacity:1;fill:#ff6600;fill-opacity:1;stroke:#ff6600;stroke-width:3.15271;stroke-linecap:round;stroke-linejoin:miter;stroke-miterlimit:4;stroke-dasharray:none;stroke-opacity:1"
           d="m 66.901788,138.61681 h 30.238101 c 1.430088,0 2.581389,1.1513 2.581389,2.58139 v 0 c 0,1.43009 -1.151301,2.58139 -2.581389,2.58139 H 66.901788 c -1.430087,0 -2.581385,-1.1513 -2.581385,-2.58139 v 0 c 0,-1.43009 1.151298,-2.58139 2.581385,-2.58139 z"
           id="rect885"
           inkscape:connector-curvature="0" />
      </g>
      <g
         id="g2003">
        <path
           style="opacity:1;fill:#f5a90c;fill-opacity:1;stroke:#f5a90c;stroke-width:5.48244;stroke-linecap:round;stroke-linejoin:miter;stroke-miterlimit:4;stroke-dasharray:none;stroke-opacity:1"
           d="M 115.01334,32.436449 H 84.01928 c -3.50693,0 -6.33021,2.823274 -6.33021,6.33021 v 1e-6 c 0,3.506936 2.82328,6.330209 6.33021,6.330209 h 30.99406 c 3.50693,0 6.3302,-2.823273 6.3302,-6.330209 v -1e-6 c 0,-3.506936 -2.82327,-6.33021 -6.3302,-6.33021 z"
           id="rect875"
           inkscape:connector-curvature="0" />
        <path
           inkscape:connector-curvature="0"
           id="path845"
           d="M 105.18596,74.749981 A 46.113096,46.113096 0 0 1 59.07249,120.86294 46.113096,46.113096 0 0 1 12.95954,74.749981 Z"
           style="opacity:1;fill:#1a1a1a;fill-opacity:1;stroke:#1a1a1a;stroke-width:5.29167;stroke-linecap:round;stroke-linejoin:miter;stroke-miterlimit:4;stroke-dasharray:none;stroke-opacity:1" />
        <path
           style="opacity:1;fill:#02b3e4;fill-opacity:1;stroke:#02b3e4;stroke-width:4.82236;stroke-linecap:round;stroke-linejoin:miter;stroke-miterlimit:4;stroke-dasharray:none;stroke-opacity:1"
           d="m 88.55501,13.506499 c -9.63235,0 -17.38691,7.754559 -17.38691,17.386904 v 35.541098 c 0,9.63235 7.75456,17.38691 17.38691,17.38691 9.63234,0 17.3869,-7.75456 17.3869,-17.38691 V 30.893403 c 0,-9.632345 -7.75456,-17.386904 -17.3869,-17.386904 z"
           id="rect837"
           inkscape:connector-curvature="0" />
        <path
           style="opacity:1;fill:#fe68ab;fill-opacity:1;stroke:#fe68ab;stroke-width:5.29167;stroke-linecap:round;stroke-linejoin:miter;stroke-miterlimit:4;stroke-dasharray:none;stroke-opacity:1"
           d="M 105.18596,74.749981 A 46.113096,46.113096 0 0 1 59.07249,120.86294 46.113096,46.113096 0 0 1 12.95954,74.749981 Z"
           id="path853"
           inkscape:connector-curvature="0" />
        <path
           inkscape:connector-curvature="0"
           id="path855"
           d="M 106.805,64.362325 A 48.261138,48.141341 0 0 1 58.543457,112.50352 48.261138,48.141341 0 0 1 10.282479,64.362325 Z"
           style="opacity:1;fill:#ff00ff;fill-opacity:1;stroke:#ff00ff;stroke-width:5.53129;stroke-linecap:round;stroke-linejoin:miter;stroke-miterlimit:4;stroke-dasharray:none;stroke-opacity:1" />
        <path
           style="opacity:1;fill:#02b3e4;fill-opacity:1;stroke:#02b3e4;stroke-width:4.66941;stroke-linecap:round;stroke-linejoin:miter;stroke-miterlimit:4;stroke-dasharray:none;stroke-opacity:1"
           d="M 85.05516,74.991744 A 40.969134,40.413968 3.323576 0 1 32.68337,99.352574 40.969134,40.413968 3.323576 0 1 7.9072507,47.64761 Z"
           id="path863"
           inkscape:connector-curvature="0" />
        <path
           style="opacity:1;fill:#ffffff;fill-opacity:1;stroke:#ffffff;stroke-width:5.29167;stroke-linecap:round;stroke-linejoin:miter;stroke-miterlimit:4;stroke-dasharray:none;stroke-opacity:1"
           d="m 84.77524,29.392855 a 4.5357141,4.5357141 0 0 0 4.53572,4.535714 4.5357141,4.5357141 0 0 0 4.53571,-4.535714 4.5357141,4.5357141 0 0 0 -4.53571,-4.535714 4.5357141,4.5357141 0 0 0 -4.53572,4.535714 z"
           id="path873"
           inkscape:connector-curvature="0" />
        <path
           style="opacity:1;fill:#02b3e4;fill-opacity:1;stroke:#02b3e4;stroke-width:1.74493;stroke-linecap:round;stroke-linejoin:miter;stroke-miterlimit:4;stroke-dasharray:none;stroke-opacity:1"
           d="m 98.34926,24.646295 14.41269,-9.29265 c 0.68164,-0.4395 0.92128,-1.33391 0.53729,-2.00543 v 0 c -0.38399,-0.67152 -1.24188,-0.85833 -1.92352,-0.41882 l -14.41269,9.29265 c -0.68165,0.43949 -0.92127,1.33391 -0.53729,2.00543 v 0 c 0.38399,0.67151 1.24187,0.85832 1.92352,0.41882 z"
           id="path1857"
           inkscape:connector-curvature="0" />
        <path
           inkscape:connector-curvature="0"
           id="path1859"
           d="m 97.95603,24.557609 11.00395,-14.13295 c 0.52041,-0.6684104 0.42624,-1.6209904 -0.21118,-2.1358404 v 0 c -0.6374,-0.51485 -1.56952,-0.39124 -2.08995,0.27716 L 95.65491,22.698939 c -0.52042,0.6684 -0.42624,1.62101 0.21117,2.13585 v 0 c 0.6374,0.51485 1.56952,0.39124 2.08995,-0.27718 z"
           style="opacity:1;fill:#02b3e4;fill-opacity:1;stroke:#02b3e4;stroke-width:1.83653;stroke-linecap:round;stroke-linejoin:miter;stroke-miterlimit:4;stroke-dasharray:none;stroke-opacity:1" />
      </g>
    </g>
    <g
       id="g3042"
       transform="matrix(0.23219222,0,0,0.23219222,123.28112,15.470128)">
      <path
         inkscape:connector-curvature="0"
         id="path1936"
         d="M 158.38318,207.66788 A 32.133466,37.123587 88.531627 0 1 121.17277,239.96522 32.133466,37.123587 88.531627 0 1 84.142142,207.98958 Z"
         style="opacity:1;fill:#02b3e4;fill-opacity:1;stroke:#02b3e4;stroke-width:3.96344;stroke-linecap:round;stroke-linejoin:miter;stroke-miterlimit:4;stroke-dasharray:none;stroke-opacity:1" />
      <g
         transform="translate(11.339286,144.38691)"
         id="g1966">
        <path
           inkscape:connector-curvature="0"
           id="path1938"
           d="m 72.15957,134.26621 -0.20752,-27.82145 c -0.0146,-1.95776 -1.60233,-3.50976 -3.55991,-3.47983 v 0 c -1.95758,0.0299 -3.52179,1.63013 -3.50719,3.58789 l 0.20753,27.82145 c 0.0146,1.95775 1.60232,3.50976 3.5599,3.47983 v 0 c 1.95759,-0.0299 3.52179,-1.63014 3.50719,-3.58789 z"
           style="opacity:1;fill:#d45500;fill-opacity:1;stroke:#d45500;stroke-width:3.66206;stroke-linecap:round;stroke-linejoin:miter;stroke-miterlimit:4;stroke-dasharray:none;stroke-opacity:1" />
        <path
           inkscape:connector-curvature="0"
           id="path1940"
           d="m 51.74885,134.26621 -0.20752,-27.82146 c -0.0146,-1.95776 -1.60232,-3.50976 -3.55991,-3.47983 v 0 c -1.95758,0.0299 -3.52179,1.63014 -3.50718,3.58789 l 0.20752,27.82146 c 0.0146,1.95775 1.60232,3.50975 3.55991,3.47982 v 0 c 1.95758,-0.0299 3.52179,-1.63013 3.50718,-3.58788 z"
           style="opacity:1;fill:#ff6600;fill-opacity:1;stroke:#ff6600;stroke-width:3.66206;stroke-linecap:round;stroke-linejoin:miter;stroke-miterlimit:4;stroke-dasharray:none;stroke-opacity:1" />
        <path
           inkscape:connector-curvature="0"
           id="path1942"
           d="M 115.01334,32.436449 H 84.01928 c -3.50693,0 -6.33021,2.823274 -6.33021,6.33021 v 1e-6 c 0,3.506936 2.82328,6.330209 6.33021,6.330209 h 30.99406 c 3.50693,0 6.3302,-2.823273 6.3302,-6.330209 v -1e-6 c 0,-3.506936 -2.82327,-6.33021 -6.3302,-6.33021 z"
           style="opacity:1;fill:#f5a90c;fill-opacity:1;stroke:#f5a90c;stroke-width:5.48244;stroke-linecap:round;stroke-linejoin:miter;stroke-miterlimit:4;stroke-dasharray:none;stroke-opacity:1" />
        <path
           style="opacity:1;fill:#1a1a1a;fill-opacity:1;stroke:#1a1a1a;stroke-width:5.29167;stroke-linecap:round;stroke-linejoin:miter;stroke-miterlimit:4;stroke-dasharray:none;stroke-opacity:1"
           d="M 105.18596,74.749981 A 46.113096,46.113096 0 0 1 59.07249,120.86294 46.113096,46.113096 0 0 1 12.95954,74.749981 Z"
           id="path1944"
           inkscape:connector-curvature="0" />
        <path
           inkscape:connector-curvature="0"
           id="path1946"
           d="m 88.55501,13.506499 c -9.63235,0 -17.38691,7.754559 -17.38691,17.386904 v 35.541098 c 0,9.63235 7.75456,17.38691 17.38691,17.38691 9.63234,0 17.3869,-7.75456 17.3869,-17.38691 V 30.893403 c 0,-9.632345 -7.75456,-17.386904 -17.3869,-17.386904 z"
           style="opacity:1;fill:#02b3e4;fill-opacity:1;stroke:#02b3e4;stroke-width:4.82236;stroke-linecap:round;stroke-linejoin:miter;stroke-miterlimit:4;stroke-dasharray:none;stroke-opacity:1" />
        <path
           inkscape:connector-curvature="0"
           id="path1948"
           d="M 105.18596,74.749981 A 46.113096,46.113096 0 0 1 59.07249,120.86294 46.113096,46.113096 0 0 1 12.95954,74.749981 Z"
           style="opacity:1;fill:#fe68ab;fill-opacity:1;stroke:#fe68ab;stroke-width:5.29167;stroke-linecap:round;stroke-linejoin:miter;stroke-miterlimit:4;stroke-dasharray:none;stroke-opacity:1" />
        <path
           style="opacity:1;fill:#ff00ff;fill-opacity:1;stroke:#ff00ff;stroke-width:5.53129;stroke-linecap:round;stroke-linejoin:miter;stroke-miterlimit:4;stroke-dasharray:none;stroke-opacity:1"
           d="M 106.805,64.362325 A 48.261138,48.141341 0 0 1 58.543457,112.50352 48.261138,48.141341 0 0 1 10.282479,64.362325 Z"
           id="path1950"
           inkscape:connector-curvature="0" />
        <path
           inkscape:connector-curvature="0"
           id="path1952"
           d="M 85.05516,74.991744 A 40.969134,40.413968 3.323576 0 1 32.68337,99.352574 40.969134,40.413968 3.323576 0 1 7.9072507,47.64761 Z"
           style="opacity:1;fill:#02b3e4;fill-opacity:1;stroke:#02b3e4;stroke-width:4.66941;stroke-linecap:round;stroke-linejoin:miter;stroke-miterlimit:4;stroke-dasharray:none;stroke-opacity:1" />
        <path
           inkscape:connector-curvature="0"
           id="path1954"
           d="m 84.77524,29.392855 a 4.5357141,4.5357141 0 0 0 4.53572,4.535714 4.5357141,4.5357141 0 0 0 4.53571,-4.535714 4.5357141,4.5357141 0 0 0 -4.53571,-4.535714 4.5357141,4.5357141 0 0 0 -4.53572,4.535714 z"
           style="opacity:1;fill:#ffffff;fill-opacity:1;stroke:#ffffff;stroke-width:5.29167;stroke-linecap:round;stroke-linejoin:miter;stroke-miterlimit:4;stroke-dasharray:none;stroke-opacity:1" />
        <g
           transform="matrix(-1,0,0,1,134.6681,1.9e-7)"
           id="g1960">
          <path
             style="opacity:1;fill:#d45500;fill-opacity:1;stroke:#d45500;stroke-width:3.15271;stroke-linecap:round;stroke-linejoin:miter;stroke-miterlimit:4;stroke-dasharray:none;stroke-opacity:1"
             d="m 45.73512,138.39002 h 30.238101 c 1.430088,0 2.581385,1.1513 2.581385,2.58139 v 0 c 0,1.43009 -1.151297,2.58138 -2.581385,2.58138 H 45.73512 c -1.430087,0 -2.581385,-1.15129 -2.581385,-2.58138 v 0 c 0,-1.43009 1.151298,-2.58139 2.581385,-2.58139 z"
             id="path1956"
             inkscape:connector-curvature="0" />
          <path
             style="opacity:1;fill:#ff6600;fill-opacity:1;stroke:#ff6600;stroke-width:3.15271;stroke-linecap:round;stroke-linejoin:miter;stroke-miterlimit:4;stroke-dasharray:none;stroke-opacity:1"
             d="m 66.901788,138.61681 h 30.238101 c 1.430088,0 2.581389,1.1513 2.581389,2.58139 v 0 c 0,1.43009 -1.151301,2.58139 -2.581389,2.58139 H 66.901788 c -1.430087,0 -2.581385,-1.1513 -2.581385,-2.58139 v 0 c 0,-1.43009 1.151298,-2.58139 2.581385,-2.58139 z"
             id="path1958"
             inkscape:connector-curvature="0" />
        </g>
        <path
           inkscape:connector-curvature="0"
           id="path1962"
           d="m 98.34926,24.646295 14.41269,-9.29265 c 0.68164,-0.4395 0.92128,-1.33391 0.53729,-2.00543 v 0 c -0.38399,-0.67152 -1.24188,-0.85833 -1.92352,-0.41882 l -14.41269,9.29265 c -0.68165,0.43949 -0.92127,1.33391 -0.53729,2.00543 v 0 c 0.38399,0.67151 1.24187,0.85832 1.92352,0.41882 z"
           style="opacity:1;fill:#02b3e4;fill-opacity:1;stroke:#02b3e4;stroke-width:1.74493;stroke-linecap:round;stroke-linejoin:miter;stroke-miterlimit:4;stroke-dasharray:none;stroke-opacity:1" />
        <path
           style="opacity:1;fill:#02b3e4;fill-opacity:1;stroke:#02b3e4;stroke-width:1.83653;stroke-linecap:round;stroke-linejoin:miter;stroke-miterlimit:4;stroke-dasharray:none;stroke-opacity:1"
           d="m 97.95603,24.557609 11.00395,-14.13295 c 0.52041,-0.6684104 0.42624,-1.6209904 -0.21118,-2.1358404 v 0 c -0.6374,-0.51485 -1.56952,-0.39124 -2.08995,0.27716 L 95.65491,22.698939 c -0.52042,0.6684 -0.42624,1.62101 0.21117,2.13585 v 0 c 0.6374,0.51485 1.56952,0.39124 2.08995,-0.27718 z"
           id="path1964"
           inkscape:connector-curvature="0" />
      </g>
    </g>
    <g
       id="g2039"
       transform="matrix(0.28009874,0,0,0.28009874,125.2774,3.9960585)">
      <path
         style="opacity:1;fill:#d45500;fill-opacity:1;stroke:#d45500;stroke-width:3.66206;stroke-linecap:round;stroke-linejoin:miter;stroke-miterlimit:4;stroke-dasharray:none;stroke-opacity:1"
         d="m 254.29808,129.49615 -13.0637,-24.56452 c -0.91928,-1.72857 -3.0451,-2.36922 -4.76642,-1.43645 v 0 c -1.72133,0.93276 -2.36702,3.07532 -1.44774,4.8039 l 13.0637,24.56452 c 0.91927,1.72857 3.0451,2.36922 4.76642,1.43645 v 0 c 1.72134,-0.93276 2.36701,-3.07533 1.44774,-4.8039 z"
         id="path1065"
         inkscape:connector-curvature="0" />
      <path
         style="opacity:1;fill:#ff6600;fill-opacity:1;stroke:#ff6600;stroke-width:3.66206;stroke-linecap:round;stroke-linejoin:miter;stroke-miterlimit:4;stroke-dasharray:none;stroke-opacity:1"
         d="m 227.88574,132.75431 -0.20752,-27.82146 c -0.0146,-1.95776 -1.60232,-3.50976 -3.55991,-3.47983 v 0 c -1.95758,0.0299 -3.52179,1.63014 -3.50718,3.58789 l 0.20752,27.82146 c 0.0146,1.95775 1.60232,3.50975 3.55991,3.47982 v 0 c 1.95758,-0.0299 3.52179,-1.63013 3.50718,-3.58788 z"
         id="path1067"
         inkscape:connector-curvature="0" />
      <path
         style="opacity:1;fill:#d45500;fill-opacity:1;stroke:#d45500;stroke-width:2.87719;stroke-linecap:round;stroke-linejoin:miter;stroke-miterlimit:4;stroke-dasharray:none;stroke-opacity:1"
         d="m 270.0096,123.84988 -23.81486,13.18775 c -1.1263,0.6237 -1.55526,2.07873 -0.96177,3.26239 v 0 c 0.59348,1.18367 1.97801,1.63444 3.10431,1.01074 L 272.15214,128.123 c 1.12632,-0.62369 1.55526,-2.0787 0.96177,-3.26236 v 0 c -0.59347,-1.18367 -1.978,-1.63447 -3.10431,-1.01076 z"
         id="path1085"
         inkscape:connector-curvature="0" />
      <path
         style="opacity:1;fill:#ff6600;fill-opacity:1;stroke:#ff6600;stroke-width:3.15271;stroke-linecap:round;stroke-linejoin:miter;stroke-miterlimit:4;stroke-dasharray:none;stroke-opacity:1"
         d="m 243.9032,137.10491 h -30.2381 c -1.43009,0 -2.58139,1.1513 -2.58139,2.58139 v 0 c 0,1.43009 1.1513,2.58139 2.58139,2.58139 h 30.2381 c 1.43009,0 2.58139,-1.1513 2.58139,-2.58139 v 0 c 0,-1.43009 -1.1513,-2.58139 -2.58139,-2.58139 z"
         id="path1087"
         inkscape:connector-curvature="0" />
      <g
         transform="translate(170.84524,-1.5119048)"
         id="g2023">
        <path
           inkscape:connector-curvature="0"
           id="path2005"
           d="M 115.01334,32.436449 H 84.01928 c -3.50693,0 -6.33021,2.823274 -6.33021,6.33021 v 1e-6 c 0,3.506936 2.82328,6.330209 6.33021,6.330209 h 30.99406 c 3.50693,0 6.3302,-2.823273 6.3302,-6.330209 v -1e-6 c 0,-3.506936 -2.82327,-6.33021 -6.3302,-6.33021 z"
           style="opacity:1;fill:#f5a90c;fill-opacity:1;stroke:#f5a90c;stroke-width:5.48244;stroke-linecap:round;stroke-linejoin:miter;stroke-miterlimit:4;stroke-dasharray:none;stroke-opacity:1" />
        <path
           style="opacity:1;fill:#1a1a1a;fill-opacity:1;stroke:#1a1a1a;stroke-width:5.29167;stroke-linecap:round;stroke-linejoin:miter;stroke-miterlimit:4;stroke-dasharray:none;stroke-opacity:1"
           d="M 105.18596,74.749981 A 46.113096,46.113096 0 0 1 59.07249,120.86294 46.113096,46.113096 0 0 1 12.95954,74.749981 Z"
           id="path2007"
           inkscape:connector-curvature="0" />
        <path
           inkscape:connector-curvature="0"
           id="path2009"
           d="m 88.55501,13.506499 c -9.63235,0 -17.38691,7.754559 -17.38691,17.386904 v 35.541098 c 0,9.63235 7.75456,17.38691 17.38691,17.38691 9.63234,0 17.3869,-7.75456 17.3869,-17.38691 V 30.893403 c 0,-9.632345 -7.75456,-17.386904 -17.3869,-17.386904 z"
           style="opacity:1;fill:#02b3e4;fill-opacity:1;stroke:#02b3e4;stroke-width:4.82236;stroke-linecap:round;stroke-linejoin:miter;stroke-miterlimit:4;stroke-dasharray:none;stroke-opacity:1" />
        <path
           inkscape:connector-curvature="0"
           id="path2011"
           d="M 105.18596,74.749981 A 46.113096,46.113096 0 0 1 59.07249,120.86294 46.113096,46.113096 0 0 1 12.95954,74.749981 Z"
           style="opacity:1;fill:#fe68ab;fill-opacity:1;stroke:#fe68ab;stroke-width:5.29167;stroke-linecap:round;stroke-linejoin:miter;stroke-miterlimit:4;stroke-dasharray:none;stroke-opacity:1" />
        <path
           style="opacity:1;fill:#ff00ff;fill-opacity:1;stroke:#ff00ff;stroke-width:5.53129;stroke-linecap:round;stroke-linejoin:miter;stroke-miterlimit:4;stroke-dasharray:none;stroke-opacity:1"
           d="M 106.805,64.362325 A 48.261138,48.141341 0 0 1 58.543457,112.50352 48.261138,48.141341 0 0 1 10.282479,64.362325 Z"
           id="path2013"
           inkscape:connector-curvature="0" />
        <path
           inkscape:connector-curvature="0"
           id="path2015"
           d="M 85.05516,74.991744 A 40.969134,40.413968 3.323576 0 1 32.68337,99.352574 40.969134,40.413968 3.323576 0 1 7.9072507,47.64761 Z"
           style="opacity:1;fill:#02b3e4;fill-opacity:1;stroke:#02b3e4;stroke-width:4.66941;stroke-linecap:round;stroke-linejoin:miter;stroke-miterlimit:4;stroke-dasharray:none;stroke-opacity:1" />
        <path
           inkscape:connector-curvature="0"
           id="path2017"
           d="m 84.77524,29.392855 a 4.5357141,4.5357141 0 0 0 4.53572,4.535714 4.5357141,4.5357141 0 0 0 4.53571,-4.535714 4.5357141,4.5357141 0 0 0 -4.53571,-4.535714 4.5357141,4.5357141 0 0 0 -4.53572,4.535714 z"
           style="opacity:1;fill:#ffffff;fill-opacity:1;stroke:#ffffff;stroke-width:5.29167;stroke-linecap:round;stroke-linejoin:miter;stroke-miterlimit:4;stroke-dasharray:none;stroke-opacity:1" />
        <path
           inkscape:connector-curvature="0"
           id="path2019"
           d="m 98.34926,24.646295 14.41269,-9.29265 c 0.68164,-0.4395 0.92128,-1.33391 0.53729,-2.00543 v 0 c -0.38399,-0.67152 -1.24188,-0.85833 -1.92352,-0.41882 l -14.41269,9.29265 c -0.68165,0.43949 -0.92127,1.33391 -0.53729,2.00543 v 0 c 0.38399,0.67151 1.24187,0.85832 1.92352,0.41882 z"
           style="opacity:1;fill:#02b3e4;fill-opacity:1;stroke:#02b3e4;stroke-width:1.74493;stroke-linecap:round;stroke-linejoin:miter;stroke-miterlimit:4;stroke-dasharray:none;stroke-opacity:1" />
        <path
           style="opacity:1;fill:#02b3e4;fill-opacity:1;stroke:#02b3e4;stroke-width:1.83653;stroke-linecap:round;stroke-linejoin:miter;stroke-miterlimit:4;stroke-dasharray:none;stroke-opacity:1"
           d="m 97.95603,24.557609 11.00395,-14.13295 c 0.52041,-0.6684104 0.42624,-1.6209904 -0.21118,-2.1358404 v 0 c -0.6374,-0.51485 -1.56952,-0.39124 -2.08995,0.27716 L 95.65491,22.698939 c -0.52042,0.6684 -0.42624,1.62101 0.21117,2.13585 v 0 c 0.6374,0.51485 1.56952,0.39124 2.08995,-0.27718 z"
           id="path2021"
           inkscape:connector-curvature="0" />
      </g>
    </g>
    <g
       id="g2071"
       transform="matrix(0.28009874,0,0,0.28009874,173.05716,45.848184)">
      <path
         style="opacity:1;fill:#f5a90c;fill-opacity:1;stroke:#f5a90c;stroke-width:5.48244;stroke-linecap:round;stroke-linejoin:miter;stroke-miterlimit:4;stroke-dasharray:none;stroke-opacity:1"
         d="M 115.01334,32.436449 H 84.01928 c -3.50693,0 -6.33021,2.823274 -6.33021,6.33021 v 1e-6 c 0,3.506936 2.82328,6.330209 6.33021,6.330209 h 30.99406 c 3.50693,0 6.3302,-2.823273 6.3302,-6.330209 v -1e-6 c 0,-3.506936 -2.82327,-6.33021 -6.3302,-6.33021 z"
         inkscape:connector-curvature="0"
         id="path2053" />
      <path
         inkscape:connector-curvature="0"
         d="M 105.18596,74.749981 A 46.113096,46.113096 0 0 1 59.07249,120.86294 46.113096,46.113096 0 0 1 12.95954,74.749981 Z"
         style="opacity:1;fill:#1a1a1a;fill-opacity:1;stroke:#1a1a1a;stroke-width:5.29167;stroke-linecap:round;stroke-linejoin:miter;stroke-miterlimit:4;stroke-dasharray:none;stroke-opacity:1"
         id="path2055" />
      <path
         style="opacity:1;fill:#02b3e4;fill-opacity:1;stroke:#02b3e4;stroke-width:4.82236;stroke-linecap:round;stroke-linejoin:miter;stroke-miterlimit:4;stroke-dasharray:none;stroke-opacity:1"
         d="m 88.55501,13.506499 c -9.63235,0 -17.38691,7.754559 -17.38691,17.386904 v 35.541098 c 0,9.63235 7.75456,17.38691 17.38691,17.38691 9.63234,0 17.3869,-7.75456 17.3869,-17.38691 V 30.893403 c 0,-9.632345 -7.75456,-17.386904 -17.3869,-17.386904 z"
         inkscape:connector-curvature="0"
         id="path2057" />
      <path
         style="opacity:1;fill:#fe68ab;fill-opacity:1;stroke:#fe68ab;stroke-width:5.29167;stroke-linecap:round;stroke-linejoin:miter;stroke-miterlimit:4;stroke-dasharray:none;stroke-opacity:1"
         d="M 105.18596,74.749981 A 46.113096,46.113096 0 0 1 59.07249,120.86294 46.113096,46.113096 0 0 1 12.95954,74.749981 Z"
         inkscape:connector-curvature="0"
         id="path2059" />
      <path
         inkscape:connector-curvature="0"
         d="M 106.805,64.362325 A 48.261138,48.141341 0 0 1 58.543457,112.50352 48.261138,48.141341 0 0 1 10.282479,64.362325 Z"
         style="opacity:1;fill:#ff00ff;fill-opacity:1;stroke:#ff00ff;stroke-width:5.53129;stroke-linecap:round;stroke-linejoin:miter;stroke-miterlimit:4;stroke-dasharray:none;stroke-opacity:1"
         id="path2061" />
      <path
         style="opacity:1;fill:#02b3e4;fill-opacity:1;stroke:#02b3e4;stroke-width:4.66941;stroke-linecap:round;stroke-linejoin:miter;stroke-miterlimit:4;stroke-dasharray:none;stroke-opacity:1"
         d="M 85.05516,74.991744 A 40.969134,40.413968 3.323576 0 1 32.68337,99.352574 40.969134,40.413968 3.323576 0 1 7.9072507,47.64761 Z"
         inkscape:connector-curvature="0"
         id="path2063" />
      <path
         style="opacity:1;fill:#ffffff;fill-opacity:1;stroke:#ffffff;stroke-width:5.29167;stroke-linecap:round;stroke-linejoin:miter;stroke-miterlimit:4;stroke-dasharray:none;stroke-opacity:1"
         d="m 84.77524,29.392855 a 4.5357141,4.5357141 0 0 0 4.53572,4.535714 4.5357141,4.5357141 0 0 0 4.53571,-4.535714 4.5357141,4.5357141 0 0 0 -4.53571,-4.535714 4.5357141,4.5357141 0 0 0 -4.53572,4.535714 z"
         inkscape:connector-curvature="0"
         id="path2065" />
      <path
         style="opacity:1;fill:#02b3e4;fill-opacity:1;stroke:#02b3e4;stroke-width:1.74493;stroke-linecap:round;stroke-linejoin:miter;stroke-miterlimit:4;stroke-dasharray:none;stroke-opacity:1"
         d="m 98.34926,24.646295 14.41269,-9.29265 c 0.68164,-0.4395 0.92128,-1.33391 0.53729,-2.00543 v 0 c -0.38399,-0.67152 -1.24188,-0.85833 -1.92352,-0.41882 l -14.41269,9.29265 c -0.68165,0.43949 -0.92127,1.33391 -0.53729,2.00543 v 0 c 0.38399,0.67151 1.24187,0.85832 1.92352,0.41882 z"
         inkscape:connector-curvature="0"
         id="path2067" />
      <path
         inkscape:connector-curvature="0"
         d="m 97.95603,24.557609 11.00395,-14.13295 c 0.52041,-0.6684104 0.42624,-1.6209904 -0.21118,-2.1358404 v 0 c -0.6374,-0.51485 -1.56952,-0.39124 -2.08995,0.27716 L 95.65491,22.698939 c -0.52042,0.6684 -0.42624,1.62101 0.21117,2.13585 v 0 c 0.6374,0.51485 1.56952,0.39124 2.08995,-0.27718 z"
         style="opacity:1;fill:#02b3e4;fill-opacity:1;stroke:#02b3e4;stroke-width:1.83653;stroke-linecap:round;stroke-linejoin:miter;stroke-miterlimit:4;stroke-dasharray:none;stroke-opacity:1"
         id="path2069" />
    </g>
    <g
       id="g2992"
       transform="matrix(0.28009874,0,0,0.28009874,125.02221,5.9036298)">
      <path
         style="opacity:1;fill:#d45500;fill-opacity:1;stroke:#d45500;stroke-width:3.66206;stroke-linecap:round;stroke-linejoin:miter;stroke-miterlimit:4;stroke-dasharray:none;stroke-opacity:1"
         d="m 72.15957,134.26621 -0.20752,-27.82145 c -0.0146,-1.95776 -1.60233,-3.50976 -3.55991,-3.47983 v 0 c -1.95758,0.0299 -3.52179,1.63013 -3.50719,3.58789 l 0.20753,27.82145 c 0.0146,1.95775 1.60232,3.50976 3.5599,3.47983 v 0 c 1.95759,-0.0299 3.52179,-1.63014 3.50719,-3.58789 z"
         id="path2962"
         inkscape:connector-curvature="0" />
      <path
         style="opacity:1;fill:#ff6600;fill-opacity:1;stroke:#ff6600;stroke-width:3.66206;stroke-linecap:round;stroke-linejoin:miter;stroke-miterlimit:4;stroke-dasharray:none;stroke-opacity:1"
         d="m 51.74885,134.26621 -0.20752,-27.82146 c -0.0146,-1.95776 -1.60232,-3.50976 -3.55991,-3.47983 v 0 c -1.95758,0.0299 -3.52179,1.63014 -3.50718,3.58789 l 0.20752,27.82146 c 0.0146,1.95775 1.60232,3.50975 3.55991,3.47982 v 0 c 1.95758,-0.0299 3.52179,-1.63013 3.50718,-3.58788 z"
         id="path2964"
         inkscape:connector-curvature="0" />
      <g
         id="g2970"
         transform="matrix(-1,0,0,1,134.6681,1.9e-7)">
        <path
           inkscape:connector-curvature="0"
           id="path2966"
           d="m 45.73512,138.39002 h 30.238101 c 1.430088,0 2.581385,1.1513 2.581385,2.58139 v 0 c 0,1.43009 -1.151297,2.58138 -2.581385,2.58138 H 45.73512 c -1.430087,0 -2.581385,-1.15129 -2.581385,-2.58138 v 0 c 0,-1.43009 1.151298,-2.58139 2.581385,-2.58139 z"
           style="opacity:1;fill:#d45500;fill-opacity:1;stroke:#d45500;stroke-width:3.15271;stroke-linecap:round;stroke-linejoin:miter;stroke-miterlimit:4;stroke-dasharray:none;stroke-opacity:1" />
        <path
           inkscape:connector-curvature="0"
           id="path2968"
           d="m 66.901788,138.61681 h 30.238101 c 1.430088,0 2.581389,1.1513 2.581389,2.58139 v 0 c 0,1.43009 -1.151301,2.58139 -2.581389,2.58139 H 66.901788 c -1.430087,0 -2.581385,-1.1513 -2.581385,-2.58139 v 0 c 0,-1.43009 1.151298,-2.58139 2.581385,-2.58139 z"
           style="opacity:1;fill:#ff6600;fill-opacity:1;stroke:#ff6600;stroke-width:3.15271;stroke-linecap:round;stroke-linejoin:miter;stroke-miterlimit:4;stroke-dasharray:none;stroke-opacity:1" />
      </g>
      <g
         id="g2990">
        <path
           inkscape:connector-curvature="0"
           id="path2972"
           d="M 115.01334,32.436449 H 84.01928 c -3.50693,0 -6.33021,2.823274 -6.33021,6.33021 v 1e-6 c 0,3.506936 2.82328,6.330209 6.33021,6.330209 h 30.99406 c 3.50693,0 6.3302,-2.823273 6.3302,-6.330209 v -1e-6 c 0,-3.506936 -2.82327,-6.33021 -6.3302,-6.33021 z"
           style="opacity:1;fill:#f5a90c;fill-opacity:1;stroke:#f5a90c;stroke-width:5.48244;stroke-linecap:round;stroke-linejoin:miter;stroke-miterlimit:4;stroke-dasharray:none;stroke-opacity:1" />
        <path
           style="opacity:1;fill:#1a1a1a;fill-opacity:1;stroke:#1a1a1a;stroke-width:5.29167;stroke-linecap:round;stroke-linejoin:miter;stroke-miterlimit:4;stroke-dasharray:none;stroke-opacity:1"
           d="M 105.18596,74.749981 A 46.113096,46.113096 0 0 1 59.07249,120.86294 46.113096,46.113096 0 0 1 12.95954,74.749981 Z"
           id="path2974"
           inkscape:connector-curvature="0" />
        <path
           inkscape:connector-curvature="0"
           id="path2976"
           d="m 88.55501,13.506499 c -9.63235,0 -17.38691,7.754559 -17.38691,17.386904 v 35.541098 c 0,9.63235 7.75456,17.38691 17.38691,17.38691 9.63234,0 17.3869,-7.75456 17.3869,-17.38691 V 30.893403 c 0,-9.632345 -7.75456,-17.386904 -17.3869,-17.386904 z"
           style="opacity:1;fill:#02b3e4;fill-opacity:1;stroke:#02b3e4;stroke-width:4.82236;stroke-linecap:round;stroke-linejoin:miter;stroke-miterlimit:4;stroke-dasharray:none;stroke-opacity:1" />
        <path
           inkscape:connector-curvature="0"
           id="path2978"
           d="M 105.18596,74.749981 A 46.113096,46.113096 0 0 1 59.07249,120.86294 46.113096,46.113096 0 0 1 12.95954,74.749981 Z"
           style="opacity:1;fill:#fe68ab;fill-opacity:1;stroke:#fe68ab;stroke-width:5.29167;stroke-linecap:round;stroke-linejoin:miter;stroke-miterlimit:4;stroke-dasharray:none;stroke-opacity:1" />
        <path
           style="opacity:1;fill:#ff00ff;fill-opacity:1;stroke:#ff00ff;stroke-width:5.53129;stroke-linecap:round;stroke-linejoin:miter;stroke-miterlimit:4;stroke-dasharray:none;stroke-opacity:1"
           d="M 106.805,64.362325 A 48.261138,48.141341 0 0 1 58.543457,112.50352 48.261138,48.141341 0 0 1 10.282479,64.362325 Z"
           id="path2980"
           inkscape:connector-curvature="0" />
        <path
           inkscape:connector-curvature="0"
           id="path2982"
           d="M 85.05516,74.991744 A 40.969134,40.413968 3.323576 0 1 32.68337,99.352574 40.969134,40.413968 3.323576 0 1 7.9072507,47.64761 Z"
           style="opacity:1;fill:#02b3e4;fill-opacity:1;stroke:#02b3e4;stroke-width:4.66941;stroke-linecap:round;stroke-linejoin:miter;stroke-miterlimit:4;stroke-dasharray:none;stroke-opacity:1" />
        <path
           inkscape:connector-curvature="0"
           id="path2984"
           d="m 84.77524,29.392855 a 4.5357141,4.5357141 0 0 0 4.53572,4.535714 4.5357141,4.5357141 0 0 0 4.53571,-4.535714 4.5357141,4.5357141 0 0 0 -4.53571,-4.535714 4.5357141,4.5357141 0 0 0 -4.53572,4.535714 z"
           style="opacity:1;fill:#ffffff;fill-opacity:1;stroke:#ffffff;stroke-width:5.29167;stroke-linecap:round;stroke-linejoin:miter;stroke-miterlimit:4;stroke-dasharray:none;stroke-opacity:1" />
        <path
           inkscape:connector-curvature="0"
           id="path2986"
           d="m 98.34926,24.646295 14.41269,-9.29265 c 0.68164,-0.4395 0.92128,-1.33391 0.53729,-2.00543 v 0 c -0.38399,-0.67152 -1.24188,-0.85833 -1.92352,-0.41882 l -14.41269,9.29265 c -0.68165,0.43949 -0.92127,1.33391 -0.53729,2.00543 v 0 c 0.38399,0.67151 1.24187,0.85832 1.92352,0.41882 z"
           style="opacity:1;fill:#02b3e4;fill-opacity:1;stroke:#02b3e4;stroke-width:1.74493;stroke-linecap:round;stroke-linejoin:miter;stroke-miterlimit:4;stroke-dasharray:none;stroke-opacity:1" />
        <path
           style="opacity:1;fill:#02b3e4;fill-opacity:1;stroke:#02b3e4;stroke-width:1.83653;stroke-linecap:round;stroke-linejoin:miter;stroke-miterlimit:4;stroke-dasharray:none;stroke-opacity:1"
           d="m 97.95603,24.557609 11.00395,-14.13295 c 0.52041,-0.6684104 0.42624,-1.6209904 -0.21118,-2.1358404 v 0 c -0.6374,-0.51485 -1.56952,-0.39124 -2.08995,0.27716 L 95.65491,22.698939 c -0.52042,0.6684 -0.42624,1.62101 0.21117,2.13585 v 0 c 0.6374,0.51485 1.56952,0.39124 2.08995,-0.27718 z"
           id="path2988"
           inkscape:connector-curvature="0" />
      </g>
    </g>
    <g
       id="g3318"
       transform="matrix(0.23219223,0,0,0.23219223,164.57089,13.431322)">
      <path
         style="opacity:1;fill:#02b3e4;fill-opacity:1;stroke:#02b3e4;stroke-width:3.96344;stroke-linecap:round;stroke-linejoin:miter;stroke-miterlimit:4;stroke-dasharray:none;stroke-opacity:1"
         d="M -29.84896,377.75717 A 32.133466,37.123587 88.531627 0 1 -67.05937,410.05451 32.133466,37.123587 88.531627 0 1 -104.09,378.07887 Z"
         id="path3044"
         inkscape:connector-curvature="0" />
      <path
         inkscape:connector-curvature="0"
         id="path3046"
         d="m -104.73328,448.74241 -0.20752,-27.82145 c -0.0146,-1.95776 -1.60233,-3.50976 -3.55991,-3.47983 v 0 c -1.95758,0.0299 -3.52179,1.63013 -3.50719,3.58789 l 0.20753,27.82145 c 0.0146,1.95775 1.60232,3.50976 3.5599,3.47983 v 0 c 1.95759,-0.0299 3.52179,-1.63014 3.50719,-3.58789 z"
         style="opacity:1;fill:#d45500;fill-opacity:1;stroke:#d45500;stroke-width:3.66206;stroke-linecap:round;stroke-linejoin:miter;stroke-miterlimit:4;stroke-dasharray:none;stroke-opacity:1" />
      <path
         inkscape:connector-curvature="0"
         id="path3048"
         d="m -125.144,448.74241 -0.20752,-27.82146 c -0.0146,-1.95776 -1.60232,-3.50976 -3.55991,-3.47983 v 0 c -1.95758,0.0299 -3.52179,1.63014 -3.50718,3.58789 l 0.20752,27.82146 c 0.0146,1.95775 1.60232,3.50975 3.55991,3.47982 v 0 c 1.95758,-0.0299 3.52179,-1.63013 3.50718,-3.58788 z"
         style="opacity:1;fill:#ff6600;fill-opacity:1;stroke:#ff6600;stroke-width:3.66206;stroke-linecap:round;stroke-linejoin:miter;stroke-miterlimit:4;stroke-dasharray:none;stroke-opacity:1" />
      <path
         inkscape:connector-curvature="0"
         id="path3050"
         d="m -61.87951,346.91265 h -30.99406 c -3.50693,0 -6.33021,2.82327 -6.33021,6.33021 v 0 c 0,3.50694 2.82328,6.33021 6.33021,6.33021 h 30.99406 c 3.50693,0 6.3302,-2.82327 6.3302,-6.33021 v 0 c 0,-3.50694 -2.82327,-6.33021 -6.3302,-6.33021 z"
         style="opacity:1;fill:#f5a90c;fill-opacity:1;stroke:#f5a90c;stroke-width:5.48244;stroke-linecap:round;stroke-linejoin:miter;stroke-miterlimit:4;stroke-dasharray:none;stroke-opacity:1" />
      <path
         style="opacity:1;fill:#1a1a1a;fill-opacity:1;stroke:#1a1a1a;stroke-width:5.29167;stroke-linecap:round;stroke-linejoin:miter;stroke-miterlimit:4;stroke-dasharray:none;stroke-opacity:1"
         d="m -71.70689,389.22618 a 46.113096,46.113096 0 0 1 -46.11347,46.11296 46.113096,46.113096 0 0 1 -46.11295,-46.11296 z"
         id="path3052"
         inkscape:connector-curvature="0" />
      <path
         inkscape:connector-curvature="0"
         id="path3054"
         d="m -88.33784,327.9827 c -9.63235,0 -17.38691,7.75456 -17.38691,17.3869 v 35.5411 c 0,9.63235 7.75456,17.38691 17.38691,17.38691 9.63234,0 17.3869,-7.75456 17.3869,-17.38691 v -35.5411 c 0,-9.63234 -7.75456,-17.3869 -17.3869,-17.3869 z"
         style="opacity:1;fill:#02b3e4;fill-opacity:1;stroke:#02b3e4;stroke-width:4.82236;stroke-linecap:round;stroke-linejoin:miter;stroke-miterlimit:4;stroke-dasharray:none;stroke-opacity:1" />
      <path
         inkscape:connector-curvature="0"
         id="path3056"
         d="m -71.70689,389.22618 a 46.113096,46.113096 0 0 1 -46.11347,46.11296 46.113096,46.113096 0 0 1 -46.11295,-46.11296 z"
         style="opacity:1;fill:#fe68ab;fill-opacity:1;stroke:#fe68ab;stroke-width:5.29167;stroke-linecap:round;stroke-linejoin:miter;stroke-miterlimit:4;stroke-dasharray:none;stroke-opacity:1" />
      <path
         style="opacity:1;fill:#ff00ff;fill-opacity:1;stroke:#ff00ff;stroke-width:5.53129;stroke-linecap:round;stroke-linejoin:miter;stroke-miterlimit:4;stroke-dasharray:none;stroke-opacity:1"
         d="m -70.08785,378.83852 a 48.261138,48.141341 0 0 1 -48.26154,48.1412 48.261138,48.141341 0 0 1 -48.26098,-48.1412 z"
         id="path3058"
         inkscape:connector-curvature="0" />
      <path
         inkscape:connector-curvature="0"
         id="path3060"
         d="m -91.83769,389.46794 a 40.969134,40.413968 3.323576 0 1 -52.37179,24.36083 40.969134,40.413968 3.323576 0 1 -24.77612,-51.70496 z"
         style="opacity:1;fill:#02b3e4;fill-opacity:1;stroke:#02b3e4;stroke-width:4.66941;stroke-linecap:round;stroke-linejoin:miter;stroke-miterlimit:4;stroke-dasharray:none;stroke-opacity:1" />
      <g
         transform="matrix(-1,0,0,1,-42.22475,314.4762)"
         id="g3068">
        <path
           style="opacity:1;fill:#d45500;fill-opacity:1;stroke:#d45500;stroke-width:3.15271;stroke-linecap:round;stroke-linejoin:miter;stroke-miterlimit:4;stroke-dasharray:none;stroke-opacity:1"
           d="m 45.73512,138.39002 h 30.238101 c 1.430088,0 2.581385,1.1513 2.581385,2.58139 v 0 c 0,1.43009 -1.151297,2.58138 -2.581385,2.58138 H 45.73512 c -1.430087,0 -2.581385,-1.15129 -2.581385,-2.58138 v 0 c 0,-1.43009 1.151298,-2.58139 2.581385,-2.58139 z"
           id="path3064"
           inkscape:connector-curvature="0" />
        <path
           style="opacity:1;fill:#ff6600;fill-opacity:1;stroke:#ff6600;stroke-width:3.15271;stroke-linecap:round;stroke-linejoin:miter;stroke-miterlimit:4;stroke-dasharray:none;stroke-opacity:1"
           d="m 66.901788,138.61681 h 30.238101 c 1.430088,0 2.581389,1.1513 2.581389,2.58139 v 0 c 0,1.43009 -1.151301,2.58139 -2.581389,2.58139 H 66.901788 c -1.430087,0 -2.581385,-1.1513 -2.581385,-2.58139 v 0 c 0,-1.43009 1.151298,-2.58139 2.581385,-2.58139 z"
           id="path3066"
           inkscape:connector-curvature="0" />
      </g>
      <path
         inkscape:connector-curvature="0"
         id="path3070"
         d="m -78.54359,339.1225 14.41269,-9.29266 c 0.68164,-0.43949 0.92128,-1.3339 0.53729,-2.00543 v 0 c -0.38399,-0.67152 -1.24188,-0.85832 -1.92352,-0.41882 l -14.41269,9.29265 c -0.68165,0.4395 -0.92127,1.33391 -0.53729,2.00543 v 0 c 0.38399,0.67151 1.24187,0.85833 1.92352,0.41883 z"
         style="opacity:1;fill:#02b3e4;fill-opacity:1;stroke:#02b3e4;stroke-width:1.74493;stroke-linecap:round;stroke-linejoin:miter;stroke-miterlimit:4;stroke-dasharray:none;stroke-opacity:1" />
      <path
         style="opacity:1;fill:#02b3e4;fill-opacity:1;stroke:#02b3e4;stroke-width:1.83653;stroke-linecap:round;stroke-linejoin:miter;stroke-miterlimit:4;stroke-dasharray:none;stroke-opacity:1"
         d="m -78.93682,339.03381 11.00395,-14.13295 c 0.52041,-0.66841 0.42624,-1.62099 -0.21118,-2.13584 v 0 c -0.6374,-0.51485 -1.56952,-0.39124 -2.08995,0.27716 l -11.00394,14.13296 c -0.52042,0.6684 -0.42624,1.62101 0.21117,2.13585 v 0 c 0.6374,0.51485 1.56952,0.39124 2.08995,-0.27718 z"
         id="path3072"
         inkscape:connector-curvature="0" />
      <path
         style="opacity:1;fill:#ffffff;fill-opacity:1;stroke:#ffffff;stroke-width:5.29167;stroke-linecap:round;stroke-linejoin:miter;stroke-miterlimit:4;stroke-dasharray:none;stroke-opacity:1"
         d="m -89.711737,339.35603 6.915857,4.93975 a 4.5357139,4.5357139 0 0 1 -4.376992,3.35327 4.5357139,4.5357139 0 0 1 -4.536159,-4.53614 4.5357139,4.5357139 0 0 1 1.997294,-3.75688 z"
         id="path3243"
         inkscape:connector-curvature="0" />
      <g
         id="g3251"
         transform="matrix(-0.0886493,0.10368558,0.10368558,0.0886493,-126.59372,300.71731)"
         inkscape:transform-center-x="12.093857"
         inkscape:transform-center-y="2.2686763">
        <path
           style="fill:none;stroke:#ff0000;stroke-width:26.4583;stroke-linecap:round;stroke-linejoin:miter;stroke-miterlimit:4;stroke-dasharray:none;stroke-opacity:1"
           d="m -268.36309,507.15476 c 39.66578,37.58126 37.94403,71.02376 -3.02382,100.54166"
           id="path3245"
           inkscape:connector-curvature="0"
           sodipodi:nodetypes="cc" />
        <path
           sodipodi:nodetypes="cc"
           inkscape:connector-curvature="0"
           id="path3247"
           d="m -130.98139,532.13842 c -51.61485,17.93411 -80.51757,1.02263 -87.88331,-48.93152"
           style="fill:none;stroke:#ff0000;stroke-width:26.4583;stroke-linecap:round;stroke-linejoin:miter;stroke-miterlimit:4;stroke-dasharray:none;stroke-opacity:1" />
        <path
           style="fill:none;stroke:#ff0000;stroke-width:26.4583;stroke-linecap:round;stroke-linejoin:miter;stroke-miterlimit:4;stroke-dasharray:none;stroke-opacity:1"
           d="m -215.59742,639.63958 c 8.46025,-53.98286 36.98184,-71.52949 84.5268,-54.52513"
           id="path3249"
           inkscape:connector-curvature="0"
           sodipodi:nodetypes="cc" />
      </g>
    </g>
    <g
       id="g3335"
       transform="matrix(0.23219223,0,0,0.23219223,94.959288,16.239325)">
      <path
         inkscape:connector-curvature="0"
         id="path3078"
         d="m 490.24628,377.75717 a 32.133466,37.123587 88.531627 0 1 -37.21041,32.29734 32.133466,37.123587 88.531627 0 1 -37.03063,-31.97564 z"
         style="opacity:1;fill:#02b3e4;fill-opacity:1;stroke:#02b3e4;stroke-width:3.96344;stroke-linecap:round;stroke-linejoin:miter;stroke-miterlimit:4;stroke-dasharray:none;stroke-opacity:1" />
      <path
         style="opacity:1;fill:#d45500;fill-opacity:1;stroke:#d45500;stroke-width:3.66206;stroke-linecap:round;stroke-linejoin:miter;stroke-miterlimit:4;stroke-dasharray:none;stroke-opacity:1"
         d="m 415.36196,448.74241 -0.20752,-27.82145 c -0.0146,-1.95776 -1.60233,-3.50976 -3.55991,-3.47983 v 0 c -1.95758,0.0299 -3.52179,1.63013 -3.50719,3.58789 l 0.20753,27.82145 c 0.0146,1.95775 1.60232,3.50976 3.5599,3.47983 v 0 c 1.95759,-0.0299 3.52179,-1.63014 3.50719,-3.58789 z"
         id="path3080"
         inkscape:connector-curvature="0" />
      <path
         style="opacity:1;fill:#ff6600;fill-opacity:1;stroke:#ff6600;stroke-width:3.66206;stroke-linecap:round;stroke-linejoin:miter;stroke-miterlimit:4;stroke-dasharray:none;stroke-opacity:1"
         d="m 394.95124,448.74241 -0.20752,-27.82146 c -0.0146,-1.95776 -1.60232,-3.50976 -3.55991,-3.47983 v 0 c -1.95758,0.0299 -3.52179,1.63014 -3.50718,3.58789 l 0.20752,27.82146 c 0.0146,1.95775 1.60232,3.50975 3.55991,3.47982 v 0 c 1.95758,-0.0299 3.52179,-1.63013 3.50718,-3.58788 z"
         id="path3082"
         inkscape:connector-curvature="0" />
      <path
         style="opacity:1;fill:#f5a90c;fill-opacity:1;stroke:#f5a90c;stroke-width:5.48244;stroke-linecap:round;stroke-linejoin:miter;stroke-miterlimit:4;stroke-dasharray:none;stroke-opacity:1"
         d="m 458.21573,346.91265 h -30.99406 c -3.50693,0 -6.33021,2.82327 -6.33021,6.33021 v 0 c 0,3.50694 2.82328,6.33021 6.33021,6.33021 h 30.99406 c 3.50693,0 6.3302,-2.82327 6.3302,-6.33021 v 0 c 0,-3.50694 -2.82327,-6.33021 -6.3302,-6.33021 z"
         id="path3084"
         inkscape:connector-curvature="0" />
      <path
         inkscape:connector-curvature="0"
         id="path3086"
         d="m 448.38835,389.22618 a 46.113096,46.113096 0 0 1 -46.11347,46.11296 46.113096,46.113096 0 0 1 -46.11295,-46.11296 z"
         style="opacity:1;fill:#1a1a1a;fill-opacity:1;stroke:#1a1a1a;stroke-width:5.29167;stroke-linecap:round;stroke-linejoin:miter;stroke-miterlimit:4;stroke-dasharray:none;stroke-opacity:1" />
      <path
         style="opacity:1;fill:#02b3e4;fill-opacity:1;stroke:#02b3e4;stroke-width:4.82236;stroke-linecap:round;stroke-linejoin:miter;stroke-miterlimit:4;stroke-dasharray:none;stroke-opacity:1"
         d="m 431.7574,327.9827 c -9.63235,0 -17.38691,7.75456 -17.38691,17.3869 v 35.5411 c 0,9.63235 7.75456,17.38691 17.38691,17.38691 9.63234,0 17.3869,-7.75456 17.3869,-17.38691 v -35.5411 c 0,-9.63234 -7.75456,-17.3869 -17.3869,-17.3869 z"
         id="path3088"
         inkscape:connector-curvature="0" />
      <path
         style="opacity:1;fill:#fe68ab;fill-opacity:1;stroke:#fe68ab;stroke-width:5.29167;stroke-linecap:round;stroke-linejoin:miter;stroke-miterlimit:4;stroke-dasharray:none;stroke-opacity:1"
         d="m 448.38835,389.22618 a 46.113096,46.113096 0 0 1 -46.11347,46.11296 46.113096,46.113096 0 0 1 -46.11295,-46.11296 z"
         id="path3090"
         inkscape:connector-curvature="0" />
      <path
         inkscape:connector-curvature="0"
         id="path3092"
         d="m 450.00739,378.83852 a 48.261138,48.141341 0 0 1 -48.26154,48.1412 48.261138,48.141341 0 0 1 -48.26098,-48.1412 z"
         style="opacity:1;fill:#ff00ff;fill-opacity:1;stroke:#ff00ff;stroke-width:5.53129;stroke-linecap:round;stroke-linejoin:miter;stroke-miterlimit:4;stroke-dasharray:none;stroke-opacity:1" />
      <path
         style="opacity:1;fill:#02b3e4;fill-opacity:1;stroke:#02b3e4;stroke-width:4.66941;stroke-linecap:round;stroke-linejoin:miter;stroke-miterlimit:4;stroke-dasharray:none;stroke-opacity:1"
         d="m 428.25755,389.46794 a 40.969134,40.413968 3.323576 0 1 -52.37179,24.36083 40.969134,40.413968 3.323576 0 1 -24.77612,-51.70496 z"
         id="path3094"
         inkscape:connector-curvature="0" />
      <g
         id="g3102"
         transform="matrix(-1,0,0,1,477.87049,314.4762)">
        <path
           inkscape:connector-curvature="0"
           id="path3098"
           d="m 45.73512,138.39002 h 30.238101 c 1.430088,0 2.581385,1.1513 2.581385,2.58139 v 0 c 0,1.43009 -1.151297,2.58138 -2.581385,2.58138 H 45.73512 c -1.430087,0 -2.581385,-1.15129 -2.581385,-2.58138 v 0 c 0,-1.43009 1.151298,-2.58139 2.581385,-2.58139 z"
           style="opacity:1;fill:#d45500;fill-opacity:1;stroke:#d45500;stroke-width:3.15271;stroke-linecap:round;stroke-linejoin:miter;stroke-miterlimit:4;stroke-dasharray:none;stroke-opacity:1" />
        <path
           inkscape:connector-curvature="0"
           id="path3100"
           d="m 66.901788,138.61681 h 30.238101 c 1.430088,0 2.581389,1.1513 2.581389,2.58139 v 0 c 0,1.43009 -1.151301,2.58139 -2.581389,2.58139 H 66.901788 c -1.430087,0 -2.581385,-1.1513 -2.581385,-2.58139 v 0 c 0,-1.43009 1.151298,-2.58139 2.581385,-2.58139 z"
           style="opacity:1;fill:#ff6600;fill-opacity:1;stroke:#ff6600;stroke-width:3.15271;stroke-linecap:round;stroke-linejoin:miter;stroke-miterlimit:4;stroke-dasharray:none;stroke-opacity:1" />
      </g>
      <path
         style="opacity:1;fill:#02b3e4;fill-opacity:1;stroke:#02b3e4;stroke-width:1.74493;stroke-linecap:round;stroke-linejoin:miter;stroke-miterlimit:4;stroke-dasharray:none;stroke-opacity:1"
         d="m 441.55165,339.1225 14.41269,-9.29266 c 0.68164,-0.43949 0.92128,-1.3339 0.53729,-2.00543 v 0 c -0.38399,-0.67152 -1.24188,-0.85832 -1.92352,-0.41882 l -14.41269,9.29265 c -0.68165,0.4395 -0.92127,1.33391 -0.53729,2.00543 v 0 c 0.38399,0.67151 1.24187,0.85833 1.92352,0.41883 z"
         id="path3104"
         inkscape:connector-curvature="0" />
      <path
         inkscape:connector-curvature="0"
         id="path3106"
         d="m 441.15842,339.03381 11.00395,-14.13295 c 0.52041,-0.66841 0.42624,-1.62099 -0.21118,-2.13584 v 0 c -0.6374,-0.51485 -1.56952,-0.39124 -2.08995,0.27716 l -11.00394,14.13296 c -0.52042,0.6684 -0.42624,1.62101 0.21117,2.13585 v 0 c 0.6374,0.51485 1.56952,0.39124 2.08995,-0.27718 z"
         style="opacity:1;fill:#02b3e4;fill-opacity:1;stroke:#02b3e4;stroke-width:1.83653;stroke-linecap:round;stroke-linejoin:miter;stroke-miterlimit:4;stroke-dasharray:none;stroke-opacity:1" />
      <path
         inkscape:connector-curvature="0"
         id="path3297"
         d="m 427.92667,345.69482 6.3599,-5.63754 a 4.5357139,4.5357139 0 0 1 2.29071,5.01549 4.5357139,4.5357139 0 0 1 -5.43488,3.40814 4.5357139,4.5357139 0 0 1 -3.21573,-2.78609 z"
         style="opacity:1;fill:#ffffff;fill-opacity:1;stroke:#ffffff;stroke-width:5.29167;stroke-linecap:round;stroke-linejoin:miter;stroke-miterlimit:4;stroke-dasharray:none;stroke-opacity:1" />
    </g>
    <g
       id="g3464"
       transform="matrix(0.23219223,0,0,0.23219223,168.89019,7.632815)">
      <path
         style="opacity:1;fill:#02b3e4;fill-opacity:1;stroke:#02b3e4;stroke-width:3.96344;stroke-linecap:round;stroke-linejoin:miter;stroke-miterlimit:4;stroke-dasharray:none;stroke-opacity:1"
         d="m -59.3311,560.69765 a 32.133466,37.123587 88.531627 0 1 -37.21041,32.29734 32.133466,37.123587 88.531627 0 1 -37.03063,-31.97564 z"
         id="path3112"
         inkscape:connector-curvature="0" />
      <path
         inkscape:connector-curvature="0"
         id="path3114"
         d="m -134.21542,631.68289 -0.20752,-27.82145 c -0.0146,-1.95776 -1.60233,-3.50976 -3.55991,-3.47983 v 0 c -1.95758,0.0299 -3.52179,1.63013 -3.50719,3.58789 l 0.20753,27.82145 c 0.0146,1.95775 1.60232,3.50976 3.5599,3.47983 v 0 c 1.95759,-0.0299 3.52179,-1.63014 3.50719,-3.58789 z"
         style="opacity:1;fill:#d45500;fill-opacity:1;stroke:#d45500;stroke-width:3.66206;stroke-linecap:round;stroke-linejoin:miter;stroke-miterlimit:4;stroke-dasharray:none;stroke-opacity:1" />
      <path
         inkscape:connector-curvature="0"
         id="path3116"
         d="m -154.62614,631.68289 -0.20752,-27.82146 c -0.0146,-1.95776 -1.60232,-3.50976 -3.55991,-3.47983 v 0 c -1.95758,0.0299 -3.52179,1.63014 -3.50718,3.58789 l 0.20752,27.82146 c 0.0146,1.95775 1.60232,3.50975 3.55991,3.47982 v 0 c 1.95758,-0.0299 3.52179,-1.63013 3.50718,-3.58788 z"
         style="opacity:1;fill:#ff6600;fill-opacity:1;stroke:#ff6600;stroke-width:3.66206;stroke-linecap:round;stroke-linejoin:miter;stroke-miterlimit:4;stroke-dasharray:none;stroke-opacity:1" />
      <path
         inkscape:connector-curvature="0"
         id="path3118"
         d="m -91.36165,529.85313 h -30.99406 c -3.50693,0 -6.33021,2.82327 -6.33021,6.33021 v 0 c 0,3.50694 2.82328,6.33021 6.33021,6.33021 h 30.99406 c 3.50693,0 6.3302,-2.82327 6.3302,-6.33021 v 0 c 0,-3.50694 -2.82327,-6.33021 -6.3302,-6.33021 z"
         style="opacity:1;fill:#f5a90c;fill-opacity:1;stroke:#f5a90c;stroke-width:5.48244;stroke-linecap:round;stroke-linejoin:miter;stroke-miterlimit:4;stroke-dasharray:none;stroke-opacity:1" />
      <path
         style="opacity:1;fill:#1a1a1a;fill-opacity:1;stroke:#1a1a1a;stroke-width:5.29167;stroke-linecap:round;stroke-linejoin:miter;stroke-miterlimit:4;stroke-dasharray:none;stroke-opacity:1"
         d="m -101.18903,572.16666 a 46.113096,46.113096 0 0 1 -46.11347,46.11296 46.113096,46.113096 0 0 1 -46.11295,-46.11296 z"
         id="path3120"
         inkscape:connector-curvature="0" />
      <path
         inkscape:connector-curvature="0"
         id="path3122"
         d="m -117.81998,510.92318 c -9.63235,0 -17.38691,7.75456 -17.38691,17.3869 v 35.5411 c 0,9.63235 7.75456,17.38691 17.38691,17.38691 9.63234,0 17.3869,-7.75456 17.3869,-17.38691 v -35.5411 c 0,-9.63234 -7.75456,-17.3869 -17.3869,-17.3869 z"
         style="opacity:1;fill:#02b3e4;fill-opacity:1;stroke:#02b3e4;stroke-width:4.82236;stroke-linecap:round;stroke-linejoin:miter;stroke-miterlimit:4;stroke-dasharray:none;stroke-opacity:1" />
      <path
         inkscape:connector-curvature="0"
         id="path3124"
         d="m -101.18903,572.16666 a 46.113096,46.113096 0 0 1 -46.11347,46.11296 46.113096,46.113096 0 0 1 -46.11295,-46.11296 z"
         style="opacity:1;fill:#fe68ab;fill-opacity:1;stroke:#fe68ab;stroke-width:5.29167;stroke-linecap:round;stroke-linejoin:miter;stroke-miterlimit:4;stroke-dasharray:none;stroke-opacity:1" />
      <path
         style="opacity:1;fill:#ff00ff;fill-opacity:1;stroke:#ff00ff;stroke-width:5.53129;stroke-linecap:round;stroke-linejoin:miter;stroke-miterlimit:4;stroke-dasharray:none;stroke-opacity:1"
         d="m -99.56999,561.779 a 48.261138,48.141341 0 0 1 -48.26154,48.1412 48.261138,48.141341 0 0 1 -48.26098,-48.1412 z"
         id="path3126"
         inkscape:connector-curvature="0" />
      <path
         inkscape:connector-curvature="0"
         id="path3128"
         d="m -121.31983,572.40842 a 40.969134,40.413968 3.323576 0 1 -52.37179,24.36083 40.969134,40.413968 3.323576 0 1 -24.77612,-51.70496 z"
         style="opacity:1;fill:#02b3e4;fill-opacity:1;stroke:#02b3e4;stroke-width:4.66941;stroke-linecap:round;stroke-linejoin:miter;stroke-miterlimit:4;stroke-dasharray:none;stroke-opacity:1" />
      <g
         transform="matrix(-1,0,0,1,-71.70689,497.41668)"
         id="g3136">
        <path
           style="opacity:1;fill:#d45500;fill-opacity:1;stroke:#d45500;stroke-width:3.15271;stroke-linecap:round;stroke-linejoin:miter;stroke-miterlimit:4;stroke-dasharray:none;stroke-opacity:1"
           d="m 45.73512,138.39002 h 30.238101 c 1.430088,0 2.581385,1.1513 2.581385,2.58139 v 0 c 0,1.43009 -1.151297,2.58138 -2.581385,2.58138 H 45.73512 c -1.430087,0 -2.581385,-1.15129 -2.581385,-2.58138 v 0 c 0,-1.43009 1.151298,-2.58139 2.581385,-2.58139 z"
           id="path3132"
           inkscape:connector-curvature="0" />
        <path
           style="opacity:1;fill:#ff6600;fill-opacity:1;stroke:#ff6600;stroke-width:3.15271;stroke-linecap:round;stroke-linejoin:miter;stroke-miterlimit:4;stroke-dasharray:none;stroke-opacity:1"
           d="m 66.901788,138.61681 h 30.238101 c 1.430088,0 2.581389,1.1513 2.581389,2.58139 v 0 c 0,1.43009 -1.151301,2.58139 -2.581389,2.58139 H 66.901788 c -1.430087,0 -2.581385,-1.1513 -2.581385,-2.58139 v 0 c 0,-1.43009 1.151298,-2.58139 2.581385,-2.58139 z"
           id="path3134"
           inkscape:connector-curvature="0" />
      </g>
      <path
         inkscape:connector-curvature="0"
         id="path3138"
         d="m -108.02573,522.06297 14.41269,-9.29265 c 0.68164,-0.4395 0.92128,-1.33391 0.53729,-2.00543 v 0 c -0.38399,-0.67152 -1.24188,-0.85833 -1.92352,-0.41882 l -14.41269,9.29266 c -0.68165,0.43948 -0.92127,1.3339 -0.53729,2.00542 v 0 c 0.38399,0.67151 1.24187,0.85832 1.92352,0.41882 z"
         style="opacity:1;fill:#02b3e4;fill-opacity:1;stroke:#02b3e4;stroke-width:1.74493;stroke-linecap:round;stroke-linejoin:miter;stroke-miterlimit:4;stroke-dasharray:none;stroke-opacity:1" />
      <path
         style="opacity:1;fill:#02b3e4;fill-opacity:1;stroke:#02b3e4;stroke-width:1.83653;stroke-linecap:round;stroke-linejoin:miter;stroke-miterlimit:4;stroke-dasharray:none;stroke-opacity:1"
         d="m -108.41896,521.97429 11.00395,-14.13295 c 0.52041,-0.66841 0.42624,-1.62099 -0.21118,-2.13584 v 0 c -0.6374,-0.51485 -1.56952,-0.39124 -2.08995,0.27716 l -11.00394,14.13296 c -0.52042,0.6684 -0.42624,1.62101 0.21117,2.13585 v 0 c 0.6374,0.51485 1.56952,0.39124 2.08995,-0.27718 z"
         id="path3140"
         inkscape:connector-curvature="0" />
      <path
         inkscape:connector-curvature="0"
         id="path3383"
         d="m -112.84932,525.4616 c -1.91317,-1.42726 -3.60947,-3.17099 -8.49482,-0.26113 -0.65572,-1.94116 0.0714,-4.08088 1.77398,-5.22068 2.08235,-1.39305 4.89975,-0.83397 6.29239,1.24865 0.83685,1.25238 0.99738,2.8385 0.42845,4.23316 z"
         style="opacity:1;fill:#ffffff;fill-opacity:1;stroke:#ffffff;stroke-width:5.29167;stroke-linecap:round;stroke-linejoin:miter;stroke-miterlimit:4;stroke-dasharray:none;stroke-opacity:1"
         sodipodi:nodetypes="ccccc" />
      <path
         inkscape:connector-curvature="0"
         id="path1321"
         d="m -122.70285,531.34521 a 6.0476193,6.0476193 0 0 0 6.04762,6.04762 6.0476193,6.0476193 0 0 0 6.04762,-6.04762 6.0476193,6.0476193 0 0 0 -6.04762,-6.04762 6.0476193,6.0476193 0 0 0 -6.04762,6.04762 z"
         style="opacity:1;fill:#02b3e4;fill-opacity:1;stroke:#02b3e4;stroke-width:5.29167;stroke-linecap:round;stroke-linejoin:miter;stroke-miterlimit:4;stroke-dasharray:none;stroke-opacity:1" />
    </g>
    <g
       id="g3528"
       transform="matrix(0.23219223,0,0,0.23219223,91.449065,12.621122)">
      <path
         inkscape:connector-curvature="0"
         id="path3146"
         d="m 503.85343,568.25717 a 32.133466,37.123587 88.531627 0 1 -37.21041,32.29734 32.133466,37.123587 88.531627 0 1 -37.03063,-31.97564 z"
         style="opacity:1;fill:#02b3e4;fill-opacity:1;stroke:#02b3e4;stroke-width:3.96344;stroke-linecap:round;stroke-linejoin:miter;stroke-miterlimit:4;stroke-dasharray:none;stroke-opacity:1" />
      <path
         style="opacity:1;fill:#d45500;fill-opacity:1;stroke:#d45500;stroke-width:3.66206;stroke-linecap:round;stroke-linejoin:miter;stroke-miterlimit:4;stroke-dasharray:none;stroke-opacity:1"
         d="m 428.96911,639.24241 -0.20752,-27.82145 c -0.0146,-1.95776 -1.60233,-3.50976 -3.55991,-3.47983 v 0 c -1.95758,0.0299 -3.52179,1.63013 -3.50719,3.58789 l 0.20753,27.82145 c 0.0146,1.95775 1.60232,3.50976 3.5599,3.47983 v 0 c 1.95759,-0.0299 3.52179,-1.63014 3.50719,-3.58789 z"
         id="path3148"
         inkscape:connector-curvature="0" />
      <path
         style="opacity:1;fill:#ff6600;fill-opacity:1;stroke:#ff6600;stroke-width:3.66206;stroke-linecap:round;stroke-linejoin:miter;stroke-miterlimit:4;stroke-dasharray:none;stroke-opacity:1"
         d="m 408.55839,639.24241 -0.20752,-27.82146 c -0.0146,-1.95776 -1.60232,-3.50976 -3.55991,-3.47983 v 0 c -1.95758,0.0299 -3.52179,1.63014 -3.50718,3.58789 l 0.20752,27.82146 c 0.0146,1.95775 1.60232,3.50975 3.55991,3.47982 v 0 c 1.95758,-0.0299 3.52179,-1.63013 3.50718,-3.58788 z"
         id="path3150"
         inkscape:connector-curvature="0" />
      <path
         style="opacity:1;fill:#f5a90c;fill-opacity:1;stroke:#f5a90c;stroke-width:5.48244;stroke-linecap:round;stroke-linejoin:miter;stroke-miterlimit:4;stroke-dasharray:none;stroke-opacity:1"
         d="m 471.82288,537.41265 h -30.99406 c -3.50693,0 -6.33021,2.82327 -6.33021,6.33021 v 0 c 0,3.50694 2.82328,6.33021 6.33021,6.33021 h 30.99406 c 3.50693,0 6.3302,-2.82327 6.3302,-6.33021 v 0 c 0,-3.50694 -2.82327,-6.33021 -6.3302,-6.33021 z"
         id="path3152"
         inkscape:connector-curvature="0" />
      <path
         inkscape:connector-curvature="0"
         id="path3154"
         d="m 461.9955,579.72618 a 46.113096,46.113096 0 0 1 -46.11347,46.11296 46.113096,46.113096 0 0 1 -46.11295,-46.11296 z"
         style="opacity:1;fill:#1a1a1a;fill-opacity:1;stroke:#1a1a1a;stroke-width:5.29167;stroke-linecap:round;stroke-linejoin:miter;stroke-miterlimit:4;stroke-dasharray:none;stroke-opacity:1" />
      <path
         style="opacity:1;fill:#02b3e4;fill-opacity:1;stroke:#02b3e4;stroke-width:4.82236;stroke-linecap:round;stroke-linejoin:miter;stroke-miterlimit:4;stroke-dasharray:none;stroke-opacity:1"
         d="m 445.36455,518.4827 c -9.63235,0 -17.38691,7.75456 -17.38691,17.3869 v 35.5411 c 0,9.63235 7.75456,17.38691 17.38691,17.38691 9.63234,0 17.3869,-7.75456 17.3869,-17.38691 v -35.5411 c 0,-9.63234 -7.75456,-17.3869 -17.3869,-17.3869 z"
         id="path3156"
         inkscape:connector-curvature="0" />
      <path
         style="opacity:1;fill:#fe68ab;fill-opacity:1;stroke:#fe68ab;stroke-width:5.29167;stroke-linecap:round;stroke-linejoin:miter;stroke-miterlimit:4;stroke-dasharray:none;stroke-opacity:1"
         d="m 461.9955,579.72618 a 46.113096,46.113096 0 0 1 -46.11347,46.11296 46.113096,46.113096 0 0 1 -46.11295,-46.11296 z"
         id="path3158"
         inkscape:connector-curvature="0" />
      <path
         inkscape:connector-curvature="0"
         id="path3160"
         d="m 463.61454,569.33852 a 48.261138,48.141341 0 0 1 -48.26154,48.1412 48.261138,48.141341 0 0 1 -48.26098,-48.1412 z"
         style="opacity:1;fill:#ff00ff;fill-opacity:1;stroke:#ff00ff;stroke-width:5.53129;stroke-linecap:round;stroke-linejoin:miter;stroke-miterlimit:4;stroke-dasharray:none;stroke-opacity:1" />
      <path
         style="opacity:1;fill:#02b3e4;fill-opacity:1;stroke:#02b3e4;stroke-width:4.66941;stroke-linecap:round;stroke-linejoin:miter;stroke-miterlimit:4;stroke-dasharray:none;stroke-opacity:1"
         d="m 441.8647,579.96794 a 40.969134,40.413968 3.323576 0 1 -52.37179,24.36083 40.969134,40.413968 3.323576 0 1 -24.77612,-51.70496 z"
         id="path3162"
         inkscape:connector-curvature="0" />
      <g
         id="g3170"
         transform="matrix(-1,0,0,1,491.47764,504.9762)">
        <path
           inkscape:connector-curvature="0"
           id="path3166"
           d="m 45.73512,138.39002 h 30.238101 c 1.430088,0 2.581385,1.1513 2.581385,2.58139 v 0 c 0,1.43009 -1.151297,2.58138 -2.581385,2.58138 H 45.73512 c -1.430087,0 -2.581385,-1.15129 -2.581385,-2.58138 v 0 c 0,-1.43009 1.151298,-2.58139 2.581385,-2.58139 z"
           style="opacity:1;fill:#d45500;fill-opacity:1;stroke:#d45500;stroke-width:3.15271;stroke-linecap:round;stroke-linejoin:miter;stroke-miterlimit:4;stroke-dasharray:none;stroke-opacity:1" />
        <path
           inkscape:connector-curvature="0"
           id="path3168"
           d="m 66.901788,138.61681 h 30.238101 c 1.430088,0 2.581389,1.1513 2.581389,2.58139 v 0 c 0,1.43009 -1.151301,2.58139 -2.581389,2.58139 H 66.901788 c -1.430087,0 -2.581385,-1.1513 -2.581385,-2.58139 v 0 c 0,-1.43009 1.151298,-2.58139 2.581385,-2.58139 z"
           style="opacity:1;fill:#ff6600;fill-opacity:1;stroke:#ff6600;stroke-width:3.15271;stroke-linecap:round;stroke-linejoin:miter;stroke-miterlimit:4;stroke-dasharray:none;stroke-opacity:1" />
      </g>
      <path
         style="opacity:1;fill:#02b3e4;fill-opacity:1;stroke:#02b3e4;stroke-width:1.74493;stroke-linecap:round;stroke-linejoin:miter;stroke-miterlimit:4;stroke-dasharray:none;stroke-opacity:1"
         d="m 455.1588,529.62249 14.41269,-9.29265 c 0.68164,-0.43949 0.92128,-1.3339 0.53729,-2.00542 v 0 c -0.38399,-0.67152 -1.24188,-0.85833 -1.92352,-0.41883 l -14.41269,9.29266 c -0.68165,0.43949 -0.92127,1.3339 -0.53729,2.00542 v 0 c 0.38399,0.67151 1.24187,0.85833 1.92352,0.41882 z"
         id="path3172"
         inkscape:connector-curvature="0" />
      <path
         inkscape:connector-curvature="0"
         id="path3174"
         d="m 454.76557,529.53381 11.00395,-14.13295 c 0.52041,-0.66841 0.42624,-1.62099 -0.21118,-2.13584 v 0 c -0.6374,-0.51485 -1.56952,-0.39124 -2.08995,0.27716 l -11.00394,14.13296 c -0.52042,0.6684 -0.42624,1.62101 0.21117,2.13585 v 0 c 0.6374,0.51485 1.56952,0.39124 2.08995,-0.27718 z"
         style="opacity:1;fill:#02b3e4;fill-opacity:1;stroke:#02b3e4;stroke-width:1.83653;stroke-linecap:round;stroke-linejoin:miter;stroke-miterlimit:4;stroke-dasharray:none;stroke-opacity:1" />
      <path
         style="opacity:1;fill:#ffffff;fill-opacity:1;stroke:#ffffff;stroke-width:7.3784;stroke-linecap:round;stroke-linejoin:miter;stroke-miterlimit:4;stroke-dasharray:none;stroke-opacity:1"
         d="m 438.50123,534.74701 a 6.5161555,6.1381794 0 0 0 6.51616,6.13819 6.5161555,6.1381794 0 0 0 6.51615,-6.13819 6.5161555,6.1381794 0 0 0 -6.51615,-6.13817 6.5161555,6.1381794 0 0 0 -6.51616,6.13817 z"
         id="path3496"
         inkscape:connector-curvature="0" />
      <g
         transform="translate(194.27976,-5.2916667)"
         id="g3506">
        <path
           style="opacity:1;fill:#ffff00;fill-opacity:1;stroke:#ffff00;stroke-width:1.74493;stroke-linecap:round;stroke-linejoin:miter;stroke-miterlimit:4;stroke-dasharray:none;stroke-opacity:1"
           d="m 284.31354,525.08677 14.41269,-9.29265 c 0.68164,-0.4395 0.92128,-1.33391 0.53729,-2.00543 v 0 c -0.38399,-0.67152 -1.24188,-0.85833 -1.92352,-0.41882 l -14.41269,9.29265 c -0.68165,0.43949 -0.92127,1.33391 -0.53729,2.00543 v 0 c 0.38399,0.67151 1.24187,0.85832 1.92352,0.41882 z"
           id="path3498"
           inkscape:connector-curvature="0" />
        <g
           id="g3504">
          <path
             style="opacity:1;fill:#ffff00;fill-opacity:1;stroke:#ffff00;stroke-width:1.83653;stroke-linecap:round;stroke-linejoin:miter;stroke-miterlimit:4;stroke-dasharray:none;stroke-opacity:1"
             d="m 279.38459,517.43856 11.00395,-14.13295 c 0.52041,-0.66841 0.42624,-1.62099 -0.21118,-2.13584 v 0 c -0.6374,-0.51485 -1.56952,-0.39124 -2.08995,0.27716 l -11.00394,14.13296 c -0.52042,0.6684 -0.42624,1.62101 0.21117,2.13585 v 0 c 0.6374,0.51485 1.56952,0.39124 2.08995,-0.27718 z"
             id="path3500"
             inkscape:connector-curvature="0" />
          <path
             inkscape:connector-curvature="0"
             id="path3502"
             d="m 272.73666,513.18805 0.76082,-17.89549 c 0.036,-0.84635 -0.59348,-1.56751 -1.41136,-1.61693 v 0 c -0.81787,-0.0494 -1.50528,0.59213 -1.54128,1.43847 l -0.7608,17.89549 c -0.036,0.84635 0.5935,1.56752 1.41136,1.61695 v 0 c 0.81788,0.0494 1.50528,-0.59213 1.54126,-1.43849 z"
             style="opacity:1;fill:#ffff00;fill-opacity:1;stroke:#ffff00;stroke-width:1.83653;stroke-linecap:round;stroke-linejoin:miter;stroke-miterlimit:4;stroke-dasharray:none;stroke-opacity:1" />
        </g>
      </g>
    </g>
  </g>
</svg>
